<svg width="16" height="18" viewBox="0 0 16 18" fill="none" xmlns="http://www.w3.org/2000/svg">
<path opacity="0.4" d="M14.3691 6.90702C14.3691 6.96368 13.925 12.581 13.6713 14.9451C13.5125 16.3959 12.5772 17.2758 11.1743 17.3008C10.0964 17.325 9.04118 17.3333 8.00298 17.3333C6.90076 17.3333 5.82284 17.325 4.77654 17.3008C3.42064 17.2683 2.48456 16.3709 2.33381 14.9451C2.07284 12.5727 1.63682 6.96368 1.62871 6.90702C1.62061 6.73619 1.67572 6.5737 1.78756 6.44203C1.89778 6.32037 2.05663 6.24704 2.22359 6.24704H13.7824C13.9485 6.24704 14.0993 6.32037 14.2184 6.44203C14.3294 6.5737 14.3854 6.73619 14.3691 6.90702" fill="#EB5757"/>
<path d="M15.5 3.98071C15.5 3.63822 15.2301 3.3699 14.9059 3.3699H12.4762C11.9818 3.3699 11.5522 3.01824 11.442 2.52242L11.3059 1.91495C11.1154 1.18081 10.4581 0.666656 9.72061 0.666656H6.2802C5.53458 0.666656 4.88378 1.18081 4.68603 1.95494L4.55879 2.52326C4.44775 3.01824 4.01821 3.3699 3.52464 3.3699H1.09488C0.769883 3.3699 0.5 3.63822 0.5 3.98071V4.29736C0.5 4.63152 0.769883 4.90817 1.09488 4.90817H14.9059C15.2301 4.90817 15.5 4.63152 15.5 4.29736V3.98071Z" fill="#EB5757"/>
</svg>
